# xmcd
#
# Track frame offsets:
# 150
# 7622
# 35160
# 37797
# 53947
# 80522
# 104802
# 116772
# 124070
# 140780
# 168410
# 178447
# 195167
# 223712
#
# Disc length: 3149 seconds
#
# Revision: 0
# Processed by: cddbd v1.5.2PL0 Copyright (c) Steve Scherf et al.
# Submitted via: Audion 3.0.2 (http://www.panic.com/audion/)
#
DISCID=c70c4b0e
DTITLE=MO'SOME TONEBENDER - C.O.W.(CHECK OUT WORLD)
DYEAR=1900
DGENRE=
TTITLE0=IMTRODUCTION
TTITLE1=Bad Summer Day Blues
TTITLE2=Interlude #1
TTITLE3=L.O.V.E.
TTITLE4=ru ru ru
TTITLE5=party ha tuzukuyo
TTITLE6=Young Lust
TTITLE7=Interlude #2
TTITLE8=engerulo-gi-
TTITLE9=Lost In the City
TTITLE10=PERFECT
TTITLE11=harahire
TTITLE12=18(eighteen)
TTITLE13=SLOW PLAY
EXTD=
EXTT0=
EXTT1=
EXTT2=
EXTT3=
EXTT4=
EXTT5=
EXTT6=
EXTT7=
EXTT8=
EXTT9=
EXTT10=
EXTT11=
EXTT12=
EXTT13=
PLAYORDER=
